# xmcd
# 
# Track frame offsets:
#     150
#     23472
#     43032
# 
# Disc length: 883
# 
# Revision: 5
# Processed by: cddbd v1.5.2PL0 Copyright (c) Steve Scherf et al.
# Submitted via: fre:ac v1.0.17
# 
DISCID=17037103
DTITLE=東野純直 - 確かに愛したとき
DYEAR=1995
DGENRE=J-Pop
TTITLE0=確かに愛したとき
TTITLE1=Lovers' Moon
TTITLE2=確かに愛したとき　カラオケ
EXTD=
EXTT0=
EXTT1=Garage Mix
EXTT2=Guilty Mix
PLAYORDER=
